<?xml version="1.0" encoding="UTF-8"?>
<svg id="Layer_2" data-name="Layer 2" xmlns="http://www.w3.org/2000/svg" viewBox="0 0 78.7 100">
  <defs>
    <style>
      .cls-1 {
        fill: #ed1c24;
      }
    </style>
  </defs>
  <g id="Layer_1-2" data-name="Layer 1">
    <path class="cls-1" d="m62.45,77.65l-6.05-6-3.5-3.5L20.05,35.35l6.6-6.6,3.6,3.5,33.25,32.55-3.5,3.4,6.05,6,9.7-9.35L36.25,26.2l-2.27-2.27h0s-.3-.3-.3-.3l-.98-.98.3-.2c1.1-1.15,2.45-2.05,3.9-2.7,1.85-.9,3.9-1.3,6-1.3,3.8,0,7.4,1.5,9.95,4l19.8,19.8,6.05-6-19.8-19.9c-4.1-4.1-9.9-6.35-16-6.35-4.45,0-8.8,1.25-12.4,3.5-1.3.9-2.5,1.85-3.55,2.85l-.34.34L10,.4l-.5-.4L3.55,6.05l17.05,16.7-.05.05-12.55,12.55,38.7,38.7,3.55,3.5c-1.3,1.25-2.75,2.2-4.3,2.8-1.7.75-3.55,1.15-5.4,1.15-3.65,0-7.3-1.45-10-4.2L6.1,52.55l-6.1,5.95,24.5,24.75c4.2,4.35,9.95,6.75,16.05,6.75,4.2,0,8.25-1.2,11.7-3.35,1.45-.75,2.75-1.8,3.95-2.9l.1-.15,3.55,3.6,12.8,12.8,6.05-6.1-12.7-12.65-3.55-3.6Z"/>
  </g>
</svg>