
<svg xmlns="http://www.w3.org/2000/svg" width="40" height="50" fill="none"><path fill="#ED1C24" d="m31.225 38.825-3.025-3-1.75-1.75-16.425-16.4 3.3-3.3 1.8 1.75L31.75 32.4 30 34.1l3.025 3 4.85-4.675L18.125 13.1l-1.136-1.136-.15-.15-.489-.489.15-.1a6.202 6.202 0 0 1 1.95-1.35c.925-.45 1.95-.65 3-.65 1.9 0 3.7.75 4.975 2l9.9 9.9 3.025-3-9.9-9.95C27.4 6.125 24.5 5 21.45 5c-2.225 0-4.4.625-6.2 1.75-.65.45-1.25.925-1.775 1.425l-.171.171L5 .2 4.75 0 1.775 3.025l8.525 8.35-.025.025L4 17.675l19.35 19.35 1.775 1.75a6.504 6.504 0 0 1-2.15 1.4c-.85.377-1.77.572-2.7.575a7.024 7.024 0 0 1-5-2.1L3.05 26.275 0 29.25l12.25 12.375C14.35 43.8 17.225 45 20.275 45c2.1 0 4.125-.6 5.85-1.675.725-.375 1.375-.9 1.975-1.45l.05-.075 1.775 1.8 6.4 6.4 3.025-3.05L33 40.625l-1.775-1.8Z"/></svg>
