<svg xmlns="http://www.w3.org/2000/svg" width="204" height="50" fill="none"><g clip-path="url(#a)"><path fill="#ED1C24" d="m31.225 38.825-3.025-3-1.75-1.75-16.425-16.4 3.3-3.3 1.8 1.75L31.75 32.4 30 34.1l3.025 3 4.85-4.675L18.125 13.1l-1.136-1.136-.15-.15-.489-.489.15-.1a6.202 6.202 0 0 1 1.95-1.35c.925-.45 1.95-.65 3-.65 1.9 0 3.7.75 4.975 2l9.9 9.9 3.025-3-9.9-9.95C27.4 6.125 24.5 5 21.45 5c-2.225 0-4.4.625-6.2 1.75-.65.45-1.25.925-1.775 1.425l-.171.171L5 .2 4.75 0 1.775 3.025l8.525 8.35-.025.025L4 17.675l19.35 19.35 1.775 1.75a6.504 6.504 0 0 1-2.15 1.4 6.715 6.715 0 0 1-2.7.575 7.024 7.024 0 0 1-5-2.1L3.05 26.275 0 29.25l12.25 12.375C14.35 43.8 17.225 45 20.275 45c2.1 0 4.125-.6 5.85-1.675.725-.375 1.375-.9 1.975-1.45l.05-.075 1.775 1.8 6.4 6.4 3.025-3.05L33 40.625l-1.775-1.8Z"/><path fill="#fff" d="M61.06 22.66 57.38 21.58c-.758-.2-1.304-.468-1.64-.811-.335-.343-.5-.922-.5-1.732 0-.525.057-.936.175-1.232.118-.297.304-.518.554-.665.253-.143.582-.235.99-.271.406-.036.896-.054 1.474-.054.94 0 1.918.015 2.94.04 1.02.028 1.917.05 2.692.067l.218-2.303a18.135 18.135 0 0 0-2.993-.514 45.559 45.559 0 0 0-2.91-.165c-1.158 0-2.143.068-2.965.204-.821.136-1.493.378-2.018.732-.525.354-.91.868-1.164 1.543-.253.678-.378 1.55-.378 2.614 0 1.425.285 2.564.853 3.41.568.85 1.557 1.49 2.964 1.922l3.818 1.165c.486.125.886.282 1.193.46.307.182.529.429.664.747.136.314.204.753.204 1.314 0 .65-.096 1.146-.286 1.49-.189.342-.518.567-.989.678-.471.107-1.121.164-1.95.164h-1.464a55.42 55.42 0 0 1-1.868-.04c-.722-.028-1.618-.056-2.682-.096l-.218 2.44c1.371.289 2.596.468 3.671.543 1.075.071 1.918.107 2.532.107 1.193 0 2.211-.082 3.061-.243.85-.164 1.536-.432 2.057-.814.525-.379.911-.911 1.165-1.597.253-.686.378-1.56.378-2.628 0-1.425-.282-2.568-.84-3.425-.56-.858-1.578-1.511-3.06-1.965l.004-.003Zm54.994-2.628c-.968-.45-2.261-.675-3.886-.675s-2.868.225-3.832.675c-.968.454-1.665 1.193-2.1 2.222-.432 1.028-.65 2.392-.65 4.089 0 1.696.218 3.057.65 4.075.432 1.021 1.132 1.76 2.1 2.221.964.461 2.243.69 3.832.69s2.921-.229 3.886-.69c.964-.46 1.66-1.2 2.085-2.221.425-1.022.636-2.379.636-4.075 0-1.697-.211-3.06-.636-4.09-.425-1.028-1.118-1.767-2.085-2.22Zm-.975 9.047c-.19.65-.518 1.1-.99 1.353-.471.254-1.11.379-1.921.379-.811 0-1.422-.125-1.882-.379-.461-.253-.79-.703-.99-1.353-.2-.65-.296-1.561-.296-2.736 0-1.175.1-2.086.296-2.736.2-.65.529-1.107.99-1.368.46-.26 1.085-.393 1.882-.393.796 0 1.453.133 1.921.393.468.261.8.718.99 1.368.189.65.285 1.56.285 2.736 0 1.175-.096 2.086-.285 2.736Zm-37.986-9.304c-.74-.279-1.643-.418-2.707-.418-.65 0-1.382.029-2.193.082-.814.054-1.618.125-2.41.218-.797.09-1.508.2-2.14.325l.296 2.247c1.047-.09 2.09-.165 3.129-.218 1.04-.054 1.9-.082 2.586-.082.921 0 1.542.157 1.867.475.325.317.49.825.49 1.528v.868h-5.118c-1.21 0-2.164.293-2.857.879-.697.585-1.043 1.403-1.043 2.45v1.407c0 .814.178 1.493.543 2.046.36.55.857.968 1.489 1.247.632.278 1.346.421 2.14.421.792 0 1.485-.118 2.124-.354a7.018 7.018 0 0 0 1.707-.892c.497-.361.918-.725 1.261-1.097.04-.043.072-.078.107-.121l.35 2.193h2.6V23.96c0-1.175-.185-2.093-.553-2.761a3.084 3.084 0 0 0-1.665-1.421l-.003-.004Zm-1.082 9.418a7.405 7.405 0 0 1-2.329 1.254c-.596.189-1.14.285-1.625.285-.614 0-1.064-.136-1.353-.407-.29-.271-.433-.679-.433-1.218v-.732c0-.468.118-.84.354-1.11.236-.272.621-.415 1.164-.433h4.225v2.364l-.003-.003Zm23.182-9.84c-.957 0-1.864.208-2.722.622-.76.368-1.542.907-2.353 1.614-.157-.532-.404-.971-.747-1.314-.614-.614-1.5-.921-2.653-.921a6.27 6.27 0 0 0-2.736.621c-.81.39-1.64.968-2.482 1.736l-.254-2.036h-2.628v13.296h3.278v-9.378c.483-.318.9-.579 1.247-.779a5.607 5.607 0 0 1 1.193-.543 3.79 3.79 0 0 1 1.082-.164c.578 0 1.01.14 1.3.422.29.278.432.771.432 1.475v8.964h3.168v-9.343c.475-.314.893-.579 1.246-.786a6.3 6.3 0 0 1 1.179-.553 3.436 3.436 0 0 1 1.096-.175c.632 0 1.075.15 1.329.446.253.297.39.782.407 1.45v8.964h3.25v-9.967c0-1.193-.311-2.1-.936-2.722-.625-.621-1.521-.936-2.696-.936v.008Zm42.736.418c-.74-.278-1.643-.417-2.708-.417-.65 0-1.382.028-2.192.082-.815.053-1.618.125-2.411.218-.797.089-1.507.2-2.139.325l.296 2.246a93.178 93.178 0 0 1 3.129-.218c1.039-.053 1.9-.082 2.585-.082.922 0 1.543.157 1.868.475.325.318.489.825.489 1.529v.867h-5.117c-1.211 0-2.165.293-2.858.879-.696.586-1.042 1.404-1.042 2.45v1.407c0 .814.178 1.493.542 2.047.361.55.858.967 1.49 1.246s1.346.421 2.139.421c.793 0 1.486-.117 2.125-.353a7.015 7.015 0 0 0 1.707-.893 8.53 8.53 0 0 0 1.261-1.096 3.88 3.88 0 0 0 .107-.122l.35 2.193h2.6v-9.018c0-1.175-.186-2.093-.554-2.76a3.084 3.084 0 0 0-1.664-1.422l-.003-.004Zm-1.083 9.418a7.419 7.419 0 0 1-2.328 1.253c-.597.19-1.139.287-1.625.287-.614 0-1.064-.136-1.354-.408-.289-.271-.432-.678-.432-1.217v-.733c0-.467.118-.839.354-1.11.235-.272.621-.415 1.164-.432h4.225v2.364l-.004-.004Zm-13.675-9.175c-.914.415-1.81.99-2.692 1.715l-.343-2.05h-2.547v13.296h3.279v-9.332c.925-.393 1.714-.7 2.357-.907a6.864 6.864 0 0 1 2.139-.354h.947l.325-3.032h-.65c-.904 0-1.843.221-2.818.664h.003Zm56.415-.5c-.993 0-2 .225-3.022.675-.989.44-2.003 1.061-3.035 1.854l-.122-2.207h-1.436V32.97h1.708v-9.689c1.103-.707 2.06-1.26 2.871-1.657a5.867 5.867 0 0 1 2.6-.621c.793 0 1.371.192 1.732.582.361.389.543 1.053.543 1.989v9.396h1.707v-9.857c0-2.4-1.182-3.6-3.546-3.6Zm19.796.325h-4.168c-.746-.214-1.696-.325-2.85-.325-1.353 0-2.432.15-3.235.447-.804.296-1.383.753-1.733 1.368-.353.614-.528 1.4-.528 2.357 0 .957.175 1.71.528 2.314.247.425.608.771 1.079 1.046-.246.183-.454.411-.618.686a2.993 2.993 0 0 0-.393 1.11c-.053.39-.014.772.122 1.15.135.38.371.704.703.976.079.064.165.121.257.178-.546.286-.985.583-1.314.893a2.595 2.595 0 0 0-.703 1.082c-.136.404-.204.908-.204 1.504 0 .74.104 1.357.311 1.854.207.496.553.896 1.043 1.207.489.307 1.125.528 1.91.664.786.136 1.757.204 2.911.204 1.5 0 2.693-.125 3.589-.379.893-.254 1.536-.668 1.922-1.246.389-.579.582-1.365.582-2.358 0-1.064-.225-1.885-.679-2.464-.45-.578-1.271-.957-2.464-1.136l-5.039-.839c-.668-.107-1.107-.343-1.315-.703-.207-.361-.25-.761-.121-1.204.079-.282.218-.543.4-.782.771.243 1.764.364 2.986.364 1.335 0 2.407-.15 3.21-.446.804-.297 1.383-.754 1.733-1.368.353-.614.528-1.39.528-2.329 0-.939-.175-1.739-.528-2.343a2.731 2.731 0 0 0-.229-.328l2.193-.143.107-1.004.007-.007Zm-9.778 11.754.1-.072 4.91.747c.632.09 1.115.218 1.45.378.332.165.561.39.679.679.118.29.175.686.175 1.193 0 .65-.136 1.16-.407 1.532-.272.371-.729.632-1.368.786-.639.153-1.522.228-2.639.228-1.118 0-2.036-.071-2.697-.218-.661-.146-1.125-.407-1.396-.785-.272-.379-.407-.893-.407-1.543 0-.49.05-.893.15-1.218.1-.325.267-.621.5-.893.235-.271.55-.543.946-.81l.004-.004Zm5.767-5.81c-.56.442-1.56.663-3.007.663-1.446 0-2.457-.221-3.032-.664-.578-.443-.868-1.15-.868-2.125 0-.975.29-1.682.868-2.125.579-.443 1.589-.664 3.032-.664s2.447.221 3.007.664c.561.443.84 1.15.84 2.125 0 .975-.279 1.682-.84 2.125Zm-47.585 5.674c-.632 0-1.122-.168-1.461-.5-.343-.332-.514-.807-.514-1.421V14.289h-1.761v15.465c0 .921.279 1.692.839 2.314.561.621 1.425.936 2.6.936s2.457-.011 3.682-.029a80.214 80.214 0 0 0 3.629-.136l-.054-1.382h-6.96Zm18.103-11.55c-.621-.26-1.385-.393-2.289-.393-.739 0-1.482.032-2.221.093a66.24 66.24 0 0 0-2.14.218c-.685.082-1.335.175-1.95.286l.165 1.271c.992-.107 2.014-.2 3.06-.271a41.203 41.203 0 0 1 2.765-.107c1.082 0 1.817.217 2.207.65.389.432.582 1.064.582 1.896v1.407h-5.879c-1.1 0-1.953.275-2.56.825-.604.55-.908 1.332-.908 2.343v1.518c0 .757.158 1.403.475 1.936.315.532.754.935 1.315 1.203.56.272 1.218.407 1.978.407.686 0 1.35-.1 1.99-.296a8.72 8.72 0 0 0 1.76-.757 11.031 11.031 0 0 0 1.407-.947c.225-.178.418-.35.583-.51l.217 2.3h1.354v-9.425c0-.993-.164-1.783-.489-2.372a2.838 2.838 0 0 0-1.422-1.271v-.004Zm.175 9.557a9.364 9.364 0 0 1-3.371 1.91c-.697.219-1.332.319-1.911.297-.775 0-1.353-.178-1.732-.542-.379-.361-.568-.911-.568-1.654v-1.14c0-.631.157-1.124.475-1.474.314-.354.818-.536 1.504-.554l5.607-.046v3.2l-.004.003Z"/></g><defs><clipPath id="a"><path fill="#fff" d="M0 0h203.382v50H0z"/></clipPath></defs></svg>