
<svg xmlns="http://www.w3.org/2000/svg" width="20" height="17" fill="none"><path fill="#fff" d="M1 8.61c0-.415.308-.757.707-.811l.111-.008 14.383.001-5.196-5.175a.818.818 0 0 1 1.062-1.238l.092.079 6.6 6.571a.821.821 0 0 1 .241.58v.032a.775.775 0 0 1-.004.048L19 8.61a.827.827 0 0 1-.161.488l-.007.01a.817.817 0 0 1-.072.081l-6.6 6.574a.818.818 0 0 1-1.235-1.068l.08-.092 5.193-5.174H1.818A.818.818 0 0 1 1 8.61Z"/><path stroke="#fff" stroke-width="1.2" d="M19 8.61a1.605 1.605 0 0 0-.004-.083.952.952 0 0 0-.035-.17.652.652 0 0 0-.044-.108.821.821 0 0 0-.158-.22l-6.6-6.571-.092-.08a.818.818 0 0 0-1.062 1.24L16.2 7.791H1.818l-.11.007a.818.818 0 0 0 .11 1.629h14.38l-5.193 5.174-.08.092a.818.818 0 0 0 1.234 1.068l6.6-6.573h.001a.817.817 0 0 0 .072-.083l.007-.01a.743.743 0 0 0 .106-.192A.806.806 0 0 0 19 8.61Zm0 0v.031a.775.775 0 0 1-.004.048L19 8.61Z"/></svg>
